<?xml version="1.0" standalone="no"?>
<svg xmlns:xlink="http://www.w3.org/1999/xlink" id="wave" style="transform:rotate(0deg); transition: 0.3s" viewBox="0 0 1440 490" version="1.1" xmlns="http://www.w3.org/2000/svg"><defs><linearGradient id="sw-gradient-0" x1="0" x2="0" y1="1" y2="0"><stop stop-color="rgba(63, 61, 98, 1)" offset="0%"/><stop stop-color="rgba(49, 49, 219, 1)" offset="100%"/></linearGradient></defs><path style="transform:translate(0, 0px); opacity:1" fill="url(#sw-gradient-0)" d="M0,245L60,212.3C120,180,240,114,360,122.5C480,131,600,212,720,269.5C840,327,960,359,1080,351.2C1200,343,1320,294,1440,236.8C1560,180,1680,114,1800,98C1920,82,2040,114,2160,106.2C2280,98,2400,49,2520,40.8C2640,33,2760,65,2880,73.5C3000,82,3120,65,3240,98C3360,131,3480,212,3600,261.3C3720,310,3840,327,3960,326.7C4080,327,4200,310,4320,326.7C4440,343,4560,392,4680,383.8C4800,376,4920,310,5040,269.5C5160,229,5280,212,5400,187.8C5520,163,5640,131,5760,147C5880,163,6000,229,6120,228.7C6240,229,6360,163,6480,163.3C6600,163,6720,229,6840,261.3C6960,294,7080,294,7200,269.5C7320,245,7440,196,7560,155.2C7680,114,7800,82,7920,89.8C8040,98,8160,147,8280,171.5C8400,196,8520,196,8580,196L8640,196L8640,490L8580,490C8520,490,8400,490,8280,490C8160,490,8040,490,7920,490C7800,490,7680,490,7560,490C7440,490,7320,490,7200,490C7080,490,6960,490,6840,490C6720,490,6600,490,6480,490C6360,490,6240,490,6120,490C6000,490,5880,490,5760,490C5640,490,5520,490,5400,490C5280,490,5160,490,5040,490C4920,490,4800,490,4680,490C4560,490,4440,490,4320,490C4200,490,4080,490,3960,490C3840,490,3720,490,3600,490C3480,490,3360,490,3240,490C3120,490,3000,490,2880,490C2760,490,2640,490,2520,490C2400,490,2280,490,2160,490C2040,490,1920,490,1800,490C1680,490,1560,490,1440,490C1320,490,1200,490,1080,490C960,490,840,490,720,490C600,490,480,490,360,490C240,490,120,490,60,490L0,490Z"/><defs><linearGradient id="sw-gradient-1" x1="0" x2="0" y1="1" y2="0"><stop stop-color="rgba(0, 194, 233, 1)" offset="0%"/><stop stop-color="rgba(49, 49, 219, 1)" offset="100%"/></linearGradient></defs><path style="transform:translate(0, 50px); opacity:0.9" fill="url(#sw-gradient-1)" d="M0,0L60,24.5C120,49,240,98,360,130.7C480,163,600,180,720,163.3C840,147,960,98,1080,106.2C1200,114,1320,180,1440,245C1560,310,1680,376,1800,375.7C1920,376,2040,310,2160,294C2280,278,2400,310,2520,343C2640,376,2760,408,2880,416.5C3000,425,3120,408,3240,408.3C3360,408,3480,425,3600,392C3720,359,3840,278,3960,228.7C4080,180,4200,163,4320,204.2C4440,245,4560,343,4680,326.7C4800,310,4920,180,5040,179.7C5160,180,5280,310,5400,302.2C5520,294,5640,147,5760,122.5C5880,98,6000,196,6120,220.5C6240,245,6360,196,6480,220.5C6600,245,6720,343,6840,334.8C6960,327,7080,212,7200,171.5C7320,131,7440,163,7560,196C7680,229,7800,261,7920,294C8040,327,8160,359,8280,359.3C8400,359,8520,327,8580,310.3L8640,294L8640,490L8580,490C8520,490,8400,490,8280,490C8160,490,8040,490,7920,490C7800,490,7680,490,7560,490C7440,490,7320,490,7200,490C7080,490,6960,490,6840,490C6720,490,6600,490,6480,490C6360,490,6240,490,6120,490C6000,490,5880,490,5760,490C5640,490,5520,490,5400,490C5280,490,5160,490,5040,490C4920,490,4800,490,4680,490C4560,490,4440,490,4320,490C4200,490,4080,490,3960,490C3840,490,3720,490,3600,490C3480,490,3360,490,3240,490C3120,490,3000,490,2880,490C2760,490,2640,490,2520,490C2400,490,2280,490,2160,490C2040,490,1920,490,1800,490C1680,490,1560,490,1440,490C1320,490,1200,490,1080,490C960,490,840,490,720,490C600,490,480,490,360,490C240,490,120,490,60,490L0,490Z"/><defs><linearGradient id="sw-gradient-2" x1="0" x2="0" y1="1" y2="0"><stop stop-color="rgba(49, 49, 219, 1)" offset="0%"/><stop stop-color="rgba(0, 194, 233, 1)" offset="100%"/></linearGradient></defs><path style="transform:translate(0, 100px); opacity:0.8" fill="url(#sw-gradient-2)" d="M0,196L60,228.7C120,261,240,327,360,318.5C480,310,600,229,720,196C840,163,960,180,1080,196C1200,212,1320,229,1440,228.7C1560,229,1680,212,1800,236.8C1920,261,2040,327,2160,367.5C2280,408,2400,425,2520,400.2C2640,376,2760,310,2880,285.8C3000,261,3120,278,3240,277.7C3360,278,3480,261,3600,269.5C3720,278,3840,310,3960,334.8C4080,359,4200,376,4320,343C4440,310,4560,229,4680,204.2C4800,180,4920,212,5040,187.8C5160,163,5280,82,5400,65.3C5520,49,5640,98,5760,147C5880,196,6000,245,6120,236.8C6240,229,6360,163,6480,147C6600,131,6720,163,6840,179.7C6960,196,7080,196,7200,179.7C7320,163,7440,131,7560,106.2C7680,82,7800,65,7920,114.3C8040,163,8160,278,8280,269.5C8400,261,8520,131,8580,65.3L8640,0L8640,490L8580,490C8520,490,8400,490,8280,490C8160,490,8040,490,7920,490C7800,490,7680,490,7560,490C7440,490,7320,490,7200,490C7080,490,6960,490,6840,490C6720,490,6600,490,6480,490C6360,490,6240,490,6120,490C6000,490,5880,490,5760,490C5640,490,5520,490,5400,490C5280,490,5160,490,5040,490C4920,490,4800,490,4680,490C4560,490,4440,490,4320,490C4200,490,4080,490,3960,490C3840,490,3720,490,3600,490C3480,490,3360,490,3240,490C3120,490,3000,490,2880,490C2760,490,2640,490,2520,490C2400,490,2280,490,2160,490C2040,490,1920,490,1800,490C1680,490,1560,490,1440,490C1320,490,1200,490,1080,490C960,490,840,490,720,490C600,490,480,490,360,490C240,490,120,490,60,490L0,490Z"/></svg>